solid OpenSCAD_Model
  facet normal 0 0 -1
    outer loop
      vertex 4.29289 -19.7071 0
      vertex 4.99998 -20 0
      vertex 4.61731 -19.9239 0
    endloop
  endfacet
  facet normal 0 0 -1
    outer loop
      vertex -4.29291 -19.7071 0
      vertex -4.61732 -19.9239 0
      vertex -5 -20 0
    endloop
  endfacet
  facet normal -0 0 -1
    outer loop
      vertex -4.29291 -19.7071 0
      vertex -5 -20 0
      vertex -4 -19 0
    endloop
  endfacet
  facet normal 0 0 -1
    outer loop
      vertex -4.29291 -19.7071 0
      vertex -4 -19 0
      vertex -4.07613 -19.3827 0
    endloop
  endfacet
  facet normal 0 0 -1
    outer loop
      vertex -4 -19 0
      vertex -7.75 -15.25 0
      vertex -4 -15.25 0
    endloop
  endfacet
  facet normal -0 0 -1
    outer loop
      vertex -4 -19 0
      vertex -5 -20 0
      vertex -7.75 -15.25 0
    endloop
  endfacet
  facet normal 0 0 -1
    outer loop
      vertex -19.9239 -19.3827 0
      vertex -20 -19 0
      vertex -19.7071 -19.7071 0
    endloop
  endfacet
  facet normal -0 0 -1
    outer loop
      vertex -9 -14 0
      vertex -20 -19 0
      vertex -14 -8.99998 0
    endloop
  endfacet
  facet normal 0 0 -1
    outer loop
      vertex 20 19 0
      vertex 19 20 0
      vertex 19.7071 19.7071 0
    endloop
  endfacet
  facet normal 0 0 -1
    outer loop
      vertex -1 -8 0
      vertex -3 -7.99998 0
      vertex 0 -7 0
    endloop
  endfacet
  facet normal 0 0 -1
    outer loop
      vertex 7 0 0
      vertex 8 -1 0
      vertex 8 -3 0
    endloop
  endfacet
  facet normal 0 0 -1
    outer loop
      vertex 0.999985 -8 0
      vertex 0 -7 0
      vertex 2.99998 -8 0
    endloop
  endfacet
  facet normal 0 0 -1
    outer loop
      vertex 19.7071 -4.29291 0
      vertex 19 -4 0
      vertex 19.3827 -4.07613 0
    endloop
  endfacet
  facet normal 0 0 -1
    outer loop
      vertex 19.7071 -19.7071 0
      vertex 19.3827 -19.9239 0
      vertex 19 -20 0
    endloop
  endfacet
  facet normal 0 0 -1
    outer loop
      vertex 20 19 0
      vertex 19.7071 19.7071 0
      vertex 19.9239 19.3827 0
    endloop
  endfacet
  facet normal -0 0 -1
    outer loop
      vertex 7.74998 -15.25 0
      vertex 3.99998 -19 0
      vertex 3.99998 -15.25 0
    endloop
  endfacet
  facet normal 0 0 -1
    outer loop
      vertex 4.29289 -19.7071 0
      vertex 4.07611 -19.3827 0
      vertex 3.99998 -19 0
    endloop
  endfacet
  facet normal 0 0 -1
    outer loop
      vertex 4.29289 -19.7071 0
      vertex 3.99998 -19 0
      vertex 4.99998 -20 0
    endloop
  endfacet
  facet normal 0 0 -1
    outer loop
      vertex 4.99998 -20 0
      vertex 3.99998 -19 0
      vertex 7.74998 -15.25 0
    endloop
  endfacet
  facet normal 0 0 -1
    outer loop
      vertex 19 -20 0
      vertex 4.99998 -20 0
      vertex 7.74998 -15.25 0
    endloop
  endfacet
  facet normal 0 -0 -1
    outer loop
      vertex 8.99998 -14 0
      vertex 19 -20 0
      vertex 7.74998 -15.25 0
    endloop
  endfacet
  facet normal 0 0 -1
    outer loop
      vertex 19.7071 -19.7071 0
      vertex 20 -19 0
      vertex 19.9239 -19.3827 0
    endloop
  endfacet
  facet normal -0 0 -1
    outer loop
      vertex 19.7071 -19.7071 0
      vertex 19 -20 0
      vertex 20 -19 0
    endloop
  endfacet
  facet normal -0 0 -1
    outer loop
      vertex 20 -19 0
      vertex 19 -20 0
      vertex 14 -9 0
    endloop
  endfacet
  facet normal 0 -0 -1
    outer loop
      vertex 20 -5 0
      vertex 20 -19 0
      vertex 15.25 -7.75 0
    endloop
  endfacet
  facet normal -0 -0 -1
    outer loop
      vertex 19.9239 -4.61732 0
      vertex 20 -5 0
      vertex 19.7071 -4.29291 0
    endloop
  endfacet
  facet normal 0 0 -1
    outer loop
      vertex 20 -5 0
      vertex 19 -4 0
      vertex 19.7071 -4.29291 0
    endloop
  endfacet
  facet normal 0 0 -1
    outer loop
      vertex 15.25 -7.75 0
      vertex 15.25 -4 0
      vertex 19 -4 0
    endloop
  endfacet
  facet normal 0 0 -1
    outer loop
      vertex 19.7071 4.29291 0
      vertex 20 5 0
      vertex 19.9239 4.61732 0
    endloop
  endfacet
  facet normal 0 0 -1
    outer loop
      vertex 19 -20 0
      vertex 8.99998 -14 0
      vertex 14 -9 0
    endloop
  endfacet
  facet normal -0 0 -1
    outer loop
      vertex 14 -9 0
      vertex 8.99998 -14 0
      vertex 8 -3 0
    endloop
  endfacet
  facet normal 0 0 -1
    outer loop
      vertex 19 20 0
      vertex 19.3827 19.9239 0
      vertex 19.7071 19.7071 0
    endloop
  endfacet
  facet normal 0 -0 -1
    outer loop
      vertex 8 -3 0
      vertex 8.99998 -14 0
      vertex 2.99998 -8 0
    endloop
  endfacet
  facet normal -0 0 -1
    outer loop
      vertex 20 -5 0
      vertex 15.25 -7.75 0
      vertex 19 -4 0
    endloop
  endfacet
  facet normal 0 0 -1
    outer loop
      vertex 20 -19 0
      vertex 14 -9 0
      vertex 15.25 -7.75 0
    endloop
  endfacet
  facet normal 0 0 -1
    outer loop
      vertex 1.53073 -3.69551 0
      vertex 8 -3 0
      vertex 2.99998 -8 0
    endloop
  endfacet
  facet normal 0 -0 -1
    outer loop
      vertex 7 0 0
      vertex 8 -3 0
      vertex 3.69551 -1.53073 0
    endloop
  endfacet
  facet normal 0 -0 -1
    outer loop
      vertex 8 3 0
      vertex 8 1 0
      vertex 7 0 0
    endloop
  endfacet
  facet normal 0 0 -1
    outer loop
      vertex 9 14 0
      vertex 8 3 0
      vertex 3 8 0
    endloop
  endfacet
  facet normal 0 -0 -1
    outer loop
      vertex -19.3827 19.9239 0
      vertex -19 20 0
      vertex -19.7071 19.7071 0
    endloop
  endfacet
  facet normal 0 0 -1
    outer loop
      vertex 15.25 7.75 0
      vertex 19 4 0
      vertex 15.25 4 0
    endloop
  endfacet
  facet normal 0 0 -1
    outer loop
      vertex 19.7071 4.29291 0
      vertex 19.3827 4.07613 0
      vertex 19 4 0
    endloop
  endfacet
  facet normal -0 0 -1
    outer loop
      vertex 19.7071 4.29291 0
      vertex 19 4 0
      vertex 20 5 0
    endloop
  endfacet
  facet normal -0 0 -1
    outer loop
      vertex 20 5 0
      vertex 19 4 0
      vertex 15.25 7.75 0
    endloop
  endfacet
  facet normal 0 -0 -1
    outer loop
      vertex 20 19 0
      vertex 20 5 0
      vertex 15.25 7.75 0
    endloop
  endfacet
  facet normal 0 0 -1
    outer loop
      vertex 14 9 0
      vertex 20 19 0
      vertex 15.25 7.75 0
    endloop
  endfacet
  facet normal 0 0 -1
    outer loop
      vertex 14 9 0
      vertex 19 20 0
      vertex 20 19 0
    endloop
  endfacet
  facet normal 0 0 -1
    outer loop
      vertex 7.75 15.25 0
      vertex 5 20 0
      vertex 19 20 0
    endloop
  endfacet
  facet normal 0 0 -1
    outer loop
      vertex 4.29291 19.7071 0
      vertex 4.61732 19.9239 0
      vertex 5 20 0
    endloop
  endfacet
  facet normal 0 -0 -1
    outer loop
      vertex 4.07613 19.3827 0
      vertex 4.29291 19.7071 0
      vertex 4 19 0
    endloop
  endfacet
  facet normal 0 0 -1
    outer loop
      vertex 4 19 0
      vertex 4.29291 19.7071 0
      vertex 5 20 0
    endloop
  endfacet
  facet normal 0 0 -1
    outer loop
      vertex 4 15.25 0
      vertex 4 19 0
      vertex 7.75 15.25 0
    endloop
  endfacet
  facet normal -0 -0 -1
    outer loop
      vertex -4.07611 19.3827 0
      vertex -3.99998 19 0
      vertex -4.29289 19.7071 0
    endloop
  endfacet
  facet normal 0 0 -1
    outer loop
      vertex 2.99998 -8 0
      vertex 0 -7 0
      vertex 1.53073 -3.69551 0
    endloop
  endfacet
  facet normal -0 0 -1
    outer loop
      vertex 14 9 0
      vertex 8 3 0
      vertex 9 14 0
    endloop
  endfacet
  facet normal 0 0 -1
    outer loop
      vertex -1.53073 3.69551 0
      vertex 0 7 0
      vertex 1.53073 3.69551 0
    endloop
  endfacet
  facet normal 0 0 -1
    outer loop
      vertex 9 14 0
      vertex 7.75 15.25 0
      vertex 19 20 0
    endloop
  endfacet
  facet normal 0 0 -1
    outer loop
      vertex 7.75 15.25 0
      vertex 4 19 0
      vertex 5 20 0
    endloop
  endfacet
  facet normal 0 0 -1
    outer loop
      vertex 14 9 0
      vertex 9 14 0
      vertex 19 20 0
    endloop
  endfacet
  facet normal -0 0 -1
    outer loop
      vertex 3 8 0
      vertex 0 7 0
      vertex 1 8 0
    endloop
  endfacet
  facet normal 0 0 -1
    outer loop
      vertex -8 1 0
      vertex -8 3 0
      vertex -7 0 0
    endloop
  endfacet
  facet normal 0 0 -1
    outer loop
      vertex 0 7 0
      vertex -2.99998 8 0
      vertex -0.999985 8 0
    endloop
  endfacet
  facet normal 0 0 -1
    outer loop
      vertex -19.7071 4.29291 0
      vertex -19.9239 4.61732 0
      vertex -20 5 0
    endloop
  endfacet
  facet normal 0 0 -1
    outer loop
      vertex -19.3827 4.07613 0
      vertex -19.7071 4.29291 0
      vertex -19 4 0
    endloop
  endfacet
  facet normal 0 0 -1
    outer loop
      vertex -7.74998 15.25 0
      vertex -3.99998 19 0
      vertex -3.99998 15.25 0
    endloop
  endfacet
  facet normal 0 0 -1
    outer loop
      vertex -4.29289 19.7071 0
      vertex -4.99998 20 0
      vertex -4.61731 19.9239 0
    endloop
  endfacet
  facet normal -0 -0 -1
    outer loop
      vertex -4.29289 19.7071 0
      vertex -3.99998 19 0
      vertex -4.99998 20 0
    endloop
  endfacet
  facet normal 0 -0 -1
    outer loop
      vertex -4.99998 20 0
      vertex -3.99998 19 0
      vertex -7.74998 15.25 0
    endloop
  endfacet
  facet normal 0 0 -1
    outer loop
      vertex -19 20 0
      vertex -4.99998 20 0
      vertex -7.74998 15.25 0
    endloop
  endfacet
  facet normal 0 0 -1
    outer loop
      vertex -9 14 0
      vertex -19 20 0
      vertex -7.74998 15.25 0
    endloop
  endfacet
  facet normal 0 0 -1
    outer loop
      vertex -19.7071 19.7071 0
      vertex -20 19 0
      vertex -19.9239 19.3827 0
    endloop
  endfacet
  facet normal 0 -0 -1
    outer loop
      vertex -19.7071 19.7071 0
      vertex -19 20 0
      vertex -20 19 0
    endloop
  endfacet
  facet normal 0 0 -1
    outer loop
      vertex -20 19 0
      vertex -19 20 0
      vertex -9 14 0
    endloop
  endfacet
  facet normal 0 0 -1
    outer loop
      vertex -20 5 0
      vertex -20 19 0
      vertex -15.25 7.75 0
    endloop
  endfacet
  facet normal 0 0 -1
    outer loop
      vertex -19 4 0
      vertex -19.7071 4.29291 0
      vertex -20 5 0
    endloop
  endfacet
  facet normal 0 0 -1
    outer loop
      vertex -15.25 4 0
      vertex -19 4 0
      vertex -15.25 7.75 0
    endloop
  endfacet
  facet normal 0 -0 -1
    outer loop
      vertex -9 14 0
      vertex -2.99998 8 0
      vertex -14 9 0
    endloop
  endfacet
  facet normal 0 0 -1
    outer loop
      vertex -14 9 0
      vertex -2.99998 8 0
      vertex -8 3 0
    endloop
  endfacet
  facet normal -0 0 -1
    outer loop
      vertex -14 9 0
      vertex -15.25 7.75 0
      vertex -20 19 0
    endloop
  endfacet
  facet normal 0 0 -1
    outer loop
      vertex -15.25 7.75 0
      vertex -19 4 0
      vertex -20 5 0
    endloop
  endfacet
  facet normal -0 0 -1
    outer loop
      vertex -9 14 0
      vertex -14 9 0
      vertex -20 19 0
    endloop
  endfacet
  facet normal 0 0 -1
    outer loop
      vertex -3 -7.99998 0
      vertex -8 -2.99998 0
      vertex -3.69551 -1.53073 0
    endloop
  endfacet
  facet normal 0 0 -1
    outer loop
      vertex -8 -0.999985 0
      vertex -7 0 0
      vertex -8 -2.99998 0
    endloop
  endfacet
  facet normal -0 0 -1
    outer loop
      vertex 1.53073 -3.69551 0
      vertex 0 -7 0
      vertex -1.53073 -3.69551 0
    endloop
  endfacet
  facet normal 0 0 -1
    outer loop
      vertex -3.69551 -1.53073 0
      vertex -7 0 0
      vertex -3.69551 1.53073 0
    endloop
  endfacet
  facet normal -0 0 -1
    outer loop
      vertex -3 -7.99998 0
      vertex -9 -14 0
      vertex -8 -2.99998 0
    endloop
  endfacet
  facet normal 0 0 -1
    outer loop
      vertex -3 -7.99998 0
      vertex -3.69551 -1.53073 0
      vertex -1.53073 -3.69551 0
    endloop
  endfacet
  facet normal 0 0 -1
    outer loop
      vertex -9 -14 0
      vertex -14 -8.99998 0
      vertex -8 -2.99998 0
    endloop
  endfacet
  facet normal 0 0 -1
    outer loop
      vertex -20 -4.99998 0
      vertex -19.9239 -4.61731 0
      vertex -19.7071 -4.29289 0
    endloop
  endfacet
  facet normal 0 -0 -1
    outer loop
      vertex -19.3827 -4.07611 0
      vertex -19 -3.99998 0
      vertex -19.7071 -4.29289 0
    endloop
  endfacet
  facet normal 0 0 -1
    outer loop
      vertex -19 -3.99998 0
      vertex -15.25 -3.99998 0
      vertex -15.25 -7.74998 0
    endloop
  endfacet
  facet normal 0 0 -1
    outer loop
      vertex -19 -3.99998 0
      vertex -20 -4.99998 0
      vertex -19.7071 -4.29289 0
    endloop
  endfacet
  facet normal 0 -0 -1
    outer loop
      vertex -19 -3.99998 0
      vertex -15.25 -7.74998 0
      vertex -20 -4.99998 0
    endloop
  endfacet
  facet normal 0 0 -1
    outer loop
      vertex -20 -4.99998 0
      vertex -15.25 -7.74998 0
      vertex -20 -19 0
    endloop
  endfacet
  facet normal 0 0 -1
    outer loop
      vertex -20 -19 0
      vertex -15.25 -7.74998 0
      vertex -14 -8.99998 0
    endloop
  endfacet
  facet normal 0 0 -1
    outer loop
      vertex -19 -20 0
      vertex -19.3827 -19.9239 0
      vertex -19.7071 -19.7071 0
    endloop
  endfacet
  facet normal 0 0 -1
    outer loop
      vertex -20 -19 0
      vertex -19 -20 0
      vertex -19.7071 -19.7071 0
    endloop
  endfacet
  facet normal 0 0 -1
    outer loop
      vertex -20 -19 0
      vertex -9 -14 0
      vertex -19 -20 0
    endloop
  endfacet
  facet normal 0 0 -1
    outer loop
      vertex -19 -20 0
      vertex -9 -14 0
      vertex -7.75 -15.25 0
    endloop
  endfacet
  facet normal 0 0 -1
    outer loop
      vertex -5 -20 0
      vertex -19 -20 0
      vertex -7.75 -15.25 0
    endloop
  endfacet
  facet normal 0 0 -1
    outer loop
      vertex 3.69551 1.53073 0
      vertex 3 8 0
      vertex 8 3 0
    endloop
  endfacet
  facet normal 0 0 -1
    outer loop
      vertex -8 -2.99998 0
      vertex -7 0 0
      vertex -3.69551 -1.53073 0
    endloop
  endfacet
  facet normal 0 0 -1
    outer loop
      vertex -3 -7.99998 0
      vertex -1.53073 -3.69551 0
      vertex 0 -7 0
    endloop
  endfacet
  facet normal 0 0 -1
    outer loop
      vertex -2.99998 8 0
      vertex 0 7 0
      vertex -1.53073 3.69551 0
    endloop
  endfacet
  facet normal 0 0 -1
    outer loop
      vertex -8 3 0
      vertex -2.99998 8 0
      vertex -1.53073 3.69551 0
    endloop
  endfacet
  facet normal 0 0 -1
    outer loop
      vertex -1.53073 3.69551 0
      vertex -3.69551 1.53073 0
      vertex -8 3 0
    endloop
  endfacet
  facet normal -0 0 -1
    outer loop
      vertex -3.69551 1.53073 0
      vertex -7 0 0
      vertex -8 3 0
    endloop
  endfacet
  facet normal 0 0 -1
    outer loop
      vertex 8 3 0
      vertex 7 0 0
      vertex 3.69551 1.53073 0
    endloop
  endfacet
  facet normal 0 0 -1
    outer loop
      vertex 3.69551 1.53073 0
      vertex 1.53073 3.69551 0
      vertex 3 8 0
    endloop
  endfacet
  facet normal 0 0 -1
    outer loop
      vertex 1.53073 3.69551 0
      vertex 0 7 0
      vertex 3 8 0
    endloop
  endfacet
  facet normal 0 0 -1
    outer loop
      vertex 3.69551 1.53073 0
      vertex 7 0 0
      vertex 3.69551 -1.53073 0
    endloop
  endfacet
  facet normal 0 -0 -1
    outer loop
      vertex 3.69551 -1.53073 0
      vertex 8 -3 0
      vertex 1.53073 -3.69551 0
    endloop
  endfacet
  facet normal -0 -0 1
    outer loop
      vertex 4.61731 -19.9239 120
      vertex 4.99998 -20 120
      vertex 4.29289 -19.7071 120
    endloop
  endfacet
  facet normal 0 0 1
    outer loop
      vertex -5 -20 120
      vertex -4.61732 -19.9239 120
      vertex -4.29291 -19.7071 120
    endloop
  endfacet
  facet normal 0 0 1
    outer loop
      vertex -4 -19 120
      vertex -5 -20 120
      vertex -4.29291 -19.7071 120
    endloop
  endfacet
  facet normal 0 -0 1
    outer loop
      vertex -4.07613 -19.3827 120
      vertex -4 -19 120
      vertex -4.29291 -19.7071 120
    endloop
  endfacet
  facet normal 0 0 1
    outer loop
      vertex -4 -15.25 120
      vertex -7.75 -15.25 120
      vertex -4 -19 120
    endloop
  endfacet
  facet normal 0 0 1
    outer loop
      vertex -7.75 -15.25 120
      vertex -5 -20 120
      vertex -4 -19 120
    endloop
  endfacet
  facet normal 0 0 1
    outer loop
      vertex -19.7071 -19.7071 120
      vertex -20 -19 120
      vertex -19.9239 -19.3827 120
    endloop
  endfacet
  facet normal 0 0 1
    outer loop
      vertex -14 -8.99998 120
      vertex -20 -19 120
      vertex -9 -14 120
    endloop
  endfacet
  facet normal 0 0 1
    outer loop
      vertex 19.7071 19.7071 120
      vertex 19 20 120
      vertex 20 19 120
    endloop
  endfacet
  facet normal 0 0 1
    outer loop
      vertex 0 -7 120
      vertex -3 -7.99998 120
      vertex -1 -8 120
    endloop
  endfacet
  facet normal 0 -0 1
    outer loop
      vertex 8 -3 120
      vertex 8 -1 120
      vertex 7 0 120
    endloop
  endfacet
  facet normal 0 0 1
    outer loop
      vertex 2.99998 -8 120
      vertex 0 -7 120
      vertex 0.999985 -8 120
    endloop
  endfacet
  facet normal 0 0 1
    outer loop
      vertex 19.3827 -4.07613 120
      vertex 19 -4 120
      vertex 19.7071 -4.29291 120
    endloop
  endfacet
  facet normal 0 0 1
    outer loop
      vertex 19 -20 120
      vertex 19.3827 -19.9239 120
      vertex 19.7071 -19.7071 120
    endloop
  endfacet
  facet normal 0 0 1
    outer loop
      vertex 19.9239 19.3827 120
      vertex 19.7071 19.7071 120
      vertex 20 19 120
    endloop
  endfacet
  facet normal -0 0 1
    outer loop
      vertex 3.99998 -15.25 120
      vertex 3.99998 -19 120
      vertex 7.74998 -15.25 120
    endloop
  endfacet
  facet normal 0 0 1
    outer loop
      vertex 3.99998 -19 120
      vertex 4.07611 -19.3827 120
      vertex 4.29289 -19.7071 120
    endloop
  endfacet
  facet normal 0 0 1
    outer loop
      vertex 4.99998 -20 120
      vertex 3.99998 -19 120
      vertex 4.29289 -19.7071 120
    endloop
  endfacet
  facet normal 0 0 1
    outer loop
      vertex 7.74998 -15.25 120
      vertex 3.99998 -19 120
      vertex 4.99998 -20 120
    endloop
  endfacet
  facet normal 0 0 1
    outer loop
      vertex 7.74998 -15.25 120
      vertex 4.99998 -20 120
      vertex 19 -20 120
    endloop
  endfacet
  facet normal -0 0 1
    outer loop
      vertex 7.74998 -15.25 120
      vertex 19 -20 120
      vertex 8.99998 -14 120
    endloop
  endfacet
  facet normal 0 -0 1
    outer loop
      vertex 19.9239 -19.3827 120
      vertex 20 -19 120
      vertex 19.7071 -19.7071 120
    endloop
  endfacet
  facet normal 0 0 1
    outer loop
      vertex 20 -19 120
      vertex 19 -20 120
      vertex 19.7071 -19.7071 120
    endloop
  endfacet
  facet normal 0 0 1
    outer loop
      vertex 14 -9 120
      vertex 19 -20 120
      vertex 20 -19 120
    endloop
  endfacet
  facet normal -0 0 1
    outer loop
      vertex 15.25 -7.75 120
      vertex 20 -19 120
      vertex 20 -5 120
    endloop
  endfacet
  facet normal 0 0 1
    outer loop
      vertex 19.7071 -4.29291 120
      vertex 20 -5 120
      vertex 19.9239 -4.61732 120
    endloop
  endfacet
  facet normal 0 0 1
    outer loop
      vertex 19.7071 -4.29291 120
      vertex 19 -4 120
      vertex 20 -5 120
    endloop
  endfacet
  facet normal 0 0 1
    outer loop
      vertex 19 -4 120
      vertex 15.25 -4 120
      vertex 15.25 -7.75 120
    endloop
  endfacet
  facet normal 0 -0 1
    outer loop
      vertex 19.9239 4.61732 120
      vertex 20 5 120
      vertex 19.7071 4.29291 120
    endloop
  endfacet
  facet normal 0 0 1
    outer loop
      vertex 14 -9 120
      vertex 8.99998 -14 120
      vertex 19 -20 120
    endloop
  endfacet
  facet normal 0 0 1
    outer loop
      vertex 8 -3 120
      vertex 8.99998 -14 120
      vertex 14 -9 120
    endloop
  endfacet
  facet normal 0 0 1
    outer loop
      vertex 19.7071 19.7071 120
      vertex 19.3827 19.9239 120
      vertex 19 20 120
    endloop
  endfacet
  facet normal -0 0 1
    outer loop
      vertex 2.99998 -8 120
      vertex 8.99998 -14 120
      vertex 8 -3 120
    endloop
  endfacet
  facet normal 0 0 1
    outer loop
      vertex 19 -4 120
      vertex 15.25 -7.75 120
      vertex 20 -5 120
    endloop
  endfacet
  facet normal 0 0 1
    outer loop
      vertex 15.25 -7.75 120
      vertex 14 -9 120
      vertex 20 -19 120
    endloop
  endfacet
  facet normal 0 -0 1
    outer loop
      vertex 2.99998 -8 120
      vertex 8 -3 120
      vertex 1.53073 -3.69551 120
    endloop
  endfacet
  facet normal -0 0 1
    outer loop
      vertex 3.69551 -1.53073 120
      vertex 8 -3 120
      vertex 7 0 120
    endloop
  endfacet
  facet normal 0 0 1
    outer loop
      vertex 7 0 120
      vertex 8 1 120
      vertex 8 3 120
    endloop
  endfacet
  facet normal -0 0 1
    outer loop
      vertex 3 8 120
      vertex 8 3 120
      vertex 9 14 120
    endloop
  endfacet
  facet normal 0 0 1
    outer loop
      vertex -19.7071 19.7071 120
      vertex -19 20 120
      vertex -19.3827 19.9239 120
    endloop
  endfacet
  facet normal 0 0 1
    outer loop
      vertex 15.25 4 120
      vertex 19 4 120
      vertex 15.25 7.75 120
    endloop
  endfacet
  facet normal 0 0 1
    outer loop
      vertex 19 4 120
      vertex 19.3827 4.07613 120
      vertex 19.7071 4.29291 120
    endloop
  endfacet
  facet normal 0 0 1
    outer loop
      vertex 20 5 120
      vertex 19 4 120
      vertex 19.7071 4.29291 120
    endloop
  endfacet
  facet normal 0 0 1
    outer loop
      vertex 15.25 7.75 120
      vertex 19 4 120
      vertex 20 5 120
    endloop
  endfacet
  facet normal -0 0 1
    outer loop
      vertex 15.25 7.75 120
      vertex 20 5 120
      vertex 20 19 120
    endloop
  endfacet
  facet normal 0 -0 1
    outer loop
      vertex 15.25 7.75 120
      vertex 20 19 120
      vertex 14 9 120
    endloop
  endfacet
  facet normal 0 0 1
    outer loop
      vertex 20 19 120
      vertex 19 20 120
      vertex 14 9 120
    endloop
  endfacet
  facet normal 0 0 1
    outer loop
      vertex 19 20 120
      vertex 5 20 120
      vertex 7.75 15.25 120
    endloop
  endfacet
  facet normal 0 0 1
    outer loop
      vertex 5 20 120
      vertex 4.61732 19.9239 120
      vertex 4.29291 19.7071 120
    endloop
  endfacet
  facet normal 0 0 1
    outer loop
      vertex 4 19 120
      vertex 4.29291 19.7071 120
      vertex 4.07613 19.3827 120
    endloop
  endfacet
  facet normal 0 0 1
    outer loop
      vertex 5 20 120
      vertex 4.29291 19.7071 120
      vertex 4 19 120
    endloop
  endfacet
  facet normal 0 0 1
    outer loop
      vertex 7.75 15.25 120
      vertex 4 19 120
      vertex 4 15.25 120
    endloop
  endfacet
  facet normal 0 0 1
    outer loop
      vertex -4.29289 19.7071 120
      vertex -3.99998 19 120
      vertex -4.07611 19.3827 120
    endloop
  endfacet
  facet normal 0 0 1
    outer loop
      vertex 1.53073 -3.69551 120
      vertex 0 -7 120
      vertex 2.99998 -8 120
    endloop
  endfacet
  facet normal 0 0 1
    outer loop
      vertex 9 14 120
      vertex 8 3 120
      vertex 14 9 120
    endloop
  endfacet
  facet normal 0 0 1
    outer loop
      vertex 1.53073 3.69551 120
      vertex 0 7 120
      vertex -1.53073 3.69551 120
    endloop
  endfacet
  facet normal 0 0 1
    outer loop
      vertex 19 20 120
      vertex 7.75 15.25 120
      vertex 9 14 120
    endloop
  endfacet
  facet normal 0 0 1
    outer loop
      vertex 5 20 120
      vertex 4 19 120
      vertex 7.75 15.25 120
    endloop
  endfacet
  facet normal 0 0 1
    outer loop
      vertex 19 20 120
      vertex 9 14 120
      vertex 14 9 120
    endloop
  endfacet
  facet normal -0 0 1
    outer loop
      vertex 1 8 120
      vertex 0 7 120
      vertex 3 8 120
    endloop
  endfacet
  facet normal 0 0 1
    outer loop
      vertex -7 0 120
      vertex -8 3 120
      vertex -8 1 120
    endloop
  endfacet
  facet normal 0 0 1
    outer loop
      vertex -0.999985 8 120
      vertex -2.99998 8 120
      vertex 0 7 120
    endloop
  endfacet
  facet normal 0 0 1
    outer loop
      vertex -20 5 120
      vertex -19.9239 4.61732 120
      vertex -19.7071 4.29291 120
    endloop
  endfacet
  facet normal 0 0 1
    outer loop
      vertex -19 4 120
      vertex -19.7071 4.29291 120
      vertex -19.3827 4.07613 120
    endloop
  endfacet
  facet normal 0 -0 1
    outer loop
      vertex -3.99998 15.25 120
      vertex -3.99998 19 120
      vertex -7.74998 15.25 120
    endloop
  endfacet
  facet normal 0 0 1
    outer loop
      vertex -4.61731 19.9239 120
      vertex -4.99998 20 120
      vertex -4.29289 19.7071 120
    endloop
  endfacet
  facet normal 0 0 1
    outer loop
      vertex -4.99998 20 120
      vertex -3.99998 19 120
      vertex -4.29289 19.7071 120
    endloop
  endfacet
  facet normal 0 0 1
    outer loop
      vertex -7.74998 15.25 120
      vertex -3.99998 19 120
      vertex -4.99998 20 120
    endloop
  endfacet
  facet normal 0 -0 1
    outer loop
      vertex -7.74998 15.25 120
      vertex -4.99998 20 120
      vertex -19 20 120
    endloop
  endfacet
  facet normal 0 0 1
    outer loop
      vertex -7.74998 15.25 120
      vertex -19 20 120
      vertex -9 14 120
    endloop
  endfacet
  facet normal -0 0 1
    outer loop
      vertex -19.9239 19.3827 120
      vertex -20 19 120
      vertex -19.7071 19.7071 120
    endloop
  endfacet
  facet normal 0 0 1
    outer loop
      vertex -20 19 120
      vertex -19 20 120
      vertex -19.7071 19.7071 120
    endloop
  endfacet
  facet normal 0 0 1
    outer loop
      vertex -9 14 120
      vertex -19 20 120
      vertex -20 19 120
    endloop
  endfacet
  facet normal 0 0 1
    outer loop
      vertex -15.25 7.75 120
      vertex -20 19 120
      vertex -20 5 120
    endloop
  endfacet
  facet normal 0 0 1
    outer loop
      vertex -20 5 120
      vertex -19.7071 4.29291 120
      vertex -19 4 120
    endloop
  endfacet
  facet normal 0 0 1
    outer loop
      vertex -15.25 7.75 120
      vertex -19 4 120
      vertex -15.25 4 120
    endloop
  endfacet
  facet normal -0 0 1
    outer loop
      vertex -14 9 120
      vertex -2.99998 8 120
      vertex -9 14 120
    endloop
  endfacet
  facet normal 0 -0 1
    outer loop
      vertex -8 3 120
      vertex -2.99998 8 120
      vertex -14 9 120
    endloop
  endfacet
  facet normal 0 0 1
    outer loop
      vertex -20 19 120
      vertex -15.25 7.75 120
      vertex -14 9 120
    endloop
  endfacet
  facet normal -0 0 1
    outer loop
      vertex -20 5 120
      vertex -19 4 120
      vertex -15.25 7.75 120
    endloop
  endfacet
  facet normal 0 0 1
    outer loop
      vertex -20 19 120
      vertex -14 9 120
      vertex -9 14 120
    endloop
  endfacet
  facet normal 0 0 1
    outer loop
      vertex -3.69551 -1.53073 120
      vertex -8 -2.99998 120
      vertex -3 -7.99998 120
    endloop
  endfacet
  facet normal 0 0 1
    outer loop
      vertex -8 -2.99998 120
      vertex -7 0 120
      vertex -8 -0.999985 120
    endloop
  endfacet
  facet normal -0 0 1
    outer loop
      vertex -1.53073 -3.69551 120
      vertex 0 -7 120
      vertex 1.53073 -3.69551 120
    endloop
  endfacet
  facet normal 0 0 1
    outer loop
      vertex -3.69551 1.53073 120
      vertex -7 0 120
      vertex -3.69551 -1.53073 120
    endloop
  endfacet
  facet normal 0 0 1
    outer loop
      vertex -8 -2.99998 120
      vertex -9 -14 120
      vertex -3 -7.99998 120
    endloop
  endfacet
  facet normal 0 0 1
    outer loop
      vertex -1.53073 -3.69551 120
      vertex -3.69551 -1.53073 120
      vertex -3 -7.99998 120
    endloop
  endfacet
  facet normal 0 0 1
    outer loop
      vertex -8 -2.99998 120
      vertex -14 -8.99998 120
      vertex -9 -14 120
    endloop
  endfacet
  facet normal 0 0 1
    outer loop
      vertex -19.7071 -4.29289 120
      vertex -19.9239 -4.61731 120
      vertex -20 -4.99998 120
    endloop
  endfacet
  facet normal 0 0 1
    outer loop
      vertex -19.7071 -4.29289 120
      vertex -19 -3.99998 120
      vertex -19.3827 -4.07611 120
    endloop
  endfacet
  facet normal 0 -0 1
    outer loop
      vertex -15.25 -7.74998 120
      vertex -15.25 -3.99998 120
      vertex -19 -3.99998 120
    endloop
  endfacet
  facet normal -0 0 1
    outer loop
      vertex -19.7071 -4.29289 120
      vertex -20 -4.99998 120
      vertex -19 -3.99998 120
    endloop
  endfacet
  facet normal -0 0 1
    outer loop
      vertex -20 -4.99998 120
      vertex -15.25 -7.74998 120
      vertex -19 -3.99998 120
    endloop
  endfacet
  facet normal 0 0 1
    outer loop
      vertex -20 -19 120
      vertex -15.25 -7.74998 120
      vertex -20 -4.99998 120
    endloop
  endfacet
  facet normal 0 0 1
    outer loop
      vertex -14 -8.99998 120
      vertex -15.25 -7.74998 120
      vertex -20 -19 120
    endloop
  endfacet
  facet normal 0 0 1
    outer loop
      vertex -19.7071 -19.7071 120
      vertex -19.3827 -19.9239 120
      vertex -19 -20 120
    endloop
  endfacet
  facet normal -0 -0 1
    outer loop
      vertex -19.7071 -19.7071 120
      vertex -19 -20 120
      vertex -20 -19 120
    endloop
  endfacet
  facet normal 0 -0 1
    outer loop
      vertex -19 -20 120
      vertex -9 -14 120
      vertex -20 -19 120
    endloop
  endfacet
  facet normal 0 0 1
    outer loop
      vertex -7.75 -15.25 120
      vertex -9 -14 120
      vertex -19 -20 120
    endloop
  endfacet
  facet normal 0 0 1
    outer loop
      vertex -7.75 -15.25 120
      vertex -19 -20 120
      vertex -5 -20 120
    endloop
  endfacet
  facet normal 0 0 1
    outer loop
      vertex 8 3 120
      vertex 3 8 120
      vertex 3.69551 1.53073 120
    endloop
  endfacet
  facet normal 0 0 1
    outer loop
      vertex -3.69551 -1.53073 120
      vertex -7 0 120
      vertex -8 -2.99998 120
    endloop
  endfacet
  facet normal 0 0 1
    outer loop
      vertex 0 -7 120
      vertex -1.53073 -3.69551 120
      vertex -3 -7.99998 120
    endloop
  endfacet
  facet normal 0 -0 1
    outer loop
      vertex -1.53073 3.69551 120
      vertex 0 7 120
      vertex -2.99998 8 120
    endloop
  endfacet
  facet normal 0 0 1
    outer loop
      vertex -1.53073 3.69551 120
      vertex -2.99998 8 120
      vertex -8 3 120
    endloop
  endfacet
  facet normal -0 0 1
    outer loop
      vertex -8 3 120
      vertex -3.69551 1.53073 120
      vertex -1.53073 3.69551 120
    endloop
  endfacet
  facet normal 0 0 1
    outer loop
      vertex -8 3 120
      vertex -7 0 120
      vertex -3.69551 1.53073 120
    endloop
  endfacet
  facet normal -0 0 1
    outer loop
      vertex 3.69551 1.53073 120
      vertex 7 0 120
      vertex 8 3 120
    endloop
  endfacet
  facet normal 0 0 1
    outer loop
      vertex 3 8 120
      vertex 1.53073 3.69551 120
      vertex 3.69551 1.53073 120
    endloop
  endfacet
  facet normal 0 0 1
    outer loop
      vertex 3 8 120
      vertex 0 7 120
      vertex 1.53073 3.69551 120
    endloop
  endfacet
  facet normal 0 0 1
    outer loop
      vertex 3.69551 -1.53073 120
      vertex 7 0 120
      vertex 3.69551 1.53073 120
    endloop
  endfacet
  facet normal 0 0 1
    outer loop
      vertex 1.53073 -3.69551 120
      vertex 8 -3 120
      vertex 3.69551 -1.53073 120
    endloop
  endfacet
  facet normal 0.555634 -0.831427 0
    outer loop
      vertex -4.29291 -19.7071 0
      vertex -4.61732 -19.9239 120
      vertex -4.61732 -19.9239 0
    endloop
  endfacet
  facet normal 0.555634 -0.831427 0
    outer loop
      vertex -4.29291 -19.7071 0
      vertex -4.29291 -19.7071 120
      vertex -4.61732 -19.9239 120
    endloop
  endfacet
  facet normal 0.831443 -0.555611 0
    outer loop
      vertex -4.07613 -19.3827 0
      vertex -4.29291 -19.7071 120
      vertex -4.29291 -19.7071 0
    endloop
  endfacet
  facet normal 0.831443 -0.555611 0
    outer loop
      vertex -4.07613 -19.3827 0
      vertex -4.07613 -19.3827 120
      vertex -4.29291 -19.7071 120
    endloop
  endfacet
  facet normal 0.980782 -0.195106 0
    outer loop
      vertex -4 -19 0
      vertex -4.07613 -19.3827 120
      vertex -4.07613 -19.3827 0
    endloop
  endfacet
  facet normal 0.980782 -0.195106 0
    outer loop
      vertex -4 -19 0
      vertex -4 -19 120
      vertex -4.07613 -19.3827 120
    endloop
  endfacet
  facet normal 1 0 0
    outer loop
      vertex -4 -15.25 0
      vertex -4 -19 120
      vertex -4 -19 0
    endloop
  endfacet
  facet normal 1 0 -0
    outer loop
      vertex -4 -15.25 0
      vertex -4 -15.25 120
      vertex -4 -19 120
    endloop
  endfacet
  facet normal 0 1 0
    outer loop
      vertex -7.75 -15.25 0
      vertex -4 -15.25 120
      vertex -4 -15.25 0
    endloop
  endfacet
  facet normal 0 1 0
    outer loop
      vertex -7.75 -15.25 0
      vertex -7.75 -15.25 120
      vertex -4 -15.25 120
    endloop
  endfacet
  facet normal 0.707107 0.707107 0
    outer loop
      vertex -9 -14 0
      vertex -7.75 -15.25 120
      vertex -7.75 -15.25 0
    endloop
  endfacet
  facet normal 0.707107 0.707107 -0
    outer loop
      vertex -9 -14 0
      vertex -9 -14 120
      vertex -7.75 -15.25 120
    endloop
  endfacet
  facet normal 0.707108 -0.707106 0
    outer loop
      vertex -3 -7.99998 0
      vertex -9 -14 120
      vertex -9 -14 0
    endloop
  endfacet
  facet normal 0.707108 -0.707106 0
    outer loop
      vertex -3 -7.99998 0
      vertex -3 -7.99998 120
      vertex -9 -14 120
    endloop
  endfacet
  facet normal -1e-05 -1 0
    outer loop
      vertex -1 -8 0
      vertex -3 -7.99998 120
      vertex -3 -7.99998 0
    endloop
  endfacet
  facet normal -1e-05 -1 0
    outer loop
      vertex -1 -8 0
      vertex -1 -8 120
      vertex -3 -7.99998 120
    endloop
  endfacet
  facet normal 0.707107 -0.707107 0
    outer loop
      vertex 0 -7 0
      vertex -1 -8 120
      vertex -1 -8 0
    endloop
  endfacet
  facet normal 0.707107 -0.707107 0
    outer loop
      vertex 0 -7 0
      vertex 0 -7 120
      vertex -1 -8 120
    endloop
  endfacet
  facet normal -0.707112 -0.707101 0
    outer loop
      vertex 0.999985 -8 0
      vertex 0 -7 120
      vertex 0 -7 0
    endloop
  endfacet
  facet normal -0.707112 -0.707101 0
    outer loop
      vertex 0.999985 -8 0
      vertex 0.999985 -8 120
      vertex 0 -7 120
    endloop
  endfacet
  facet normal 0 -1 0
    outer loop
      vertex 2.99998 -8 0
      vertex 0.999985 -8 120
      vertex 0.999985 -8 0
    endloop
  endfacet
  facet normal 0 -1 0
    outer loop
      vertex 2.99998 -8 0
      vertex 2.99998 -8 120
      vertex 0.999985 -8 120
    endloop
  endfacet
  facet normal -0.707107 -0.707107 0
    outer loop
      vertex 8.99998 -14 0
      vertex 2.99998 -8 120
      vertex 2.99998 -8 0
    endloop
  endfacet
  facet normal -0.707107 -0.707107 0
    outer loop
      vertex 8.99998 -14 0
      vertex 8.99998 -14 120
      vertex 2.99998 -8 120
    endloop
  endfacet
  facet normal -0.707107 0.707107 0
    outer loop
      vertex 7.74998 -15.25 0
      vertex 8.99998 -14 120
      vertex 8.99998 -14 0
    endloop
  endfacet
  facet normal -0.707107 0.707107 0
    outer loop
      vertex 7.74998 -15.25 0
      vertex 7.74998 -15.25 120
      vertex 8.99998 -14 120
    endloop
  endfacet
  facet normal 0 1 0
    outer loop
      vertex 3.99998 -15.25 0
      vertex 7.74998 -15.25 120
      vertex 7.74998 -15.25 0
    endloop
  endfacet
  facet normal 0 1 0
    outer loop
      vertex 3.99998 -15.25 0
      vertex 3.99998 -15.25 120
      vertex 7.74998 -15.25 120
    endloop
  endfacet
  facet normal -1 0 0
    outer loop
      vertex 3.99998 -19 0
      vertex 3.99998 -15.25 120
      vertex 3.99998 -15.25 0
    endloop
  endfacet
  facet normal -1 0 0
    outer loop
      vertex 3.99998 -19 0
      vertex 3.99998 -19 120
      vertex 3.99998 -15.25 120
    endloop
  endfacet
  facet normal -0.980782 -0.195106 0
    outer loop
      vertex 4.07611 -19.3827 0
      vertex 3.99998 -19 120
      vertex 3.99998 -19 0
    endloop
  endfacet
  facet normal -0.980782 -0.195106 0
    outer loop
      vertex 4.07611 -19.3827 0
      vertex 4.07611 -19.3827 120
      vertex 3.99998 -19 120
    endloop
  endfacet
  facet normal -0.831443 -0.555611 0
    outer loop
      vertex 4.29289 -19.7071 0
      vertex 4.07611 -19.3827 120
      vertex 4.07611 -19.3827 0
    endloop
  endfacet
  facet normal -0.831443 -0.555611 0
    outer loop
      vertex 4.29289 -19.7071 0
      vertex 4.29289 -19.7071 120
      vertex 4.07611 -19.3827 120
    endloop
  endfacet
  facet normal -0.555622 -0.831435 0
    outer loop
      vertex 4.61731 -19.9239 0
      vertex 4.29289 -19.7071 120
      vertex 4.29289 -19.7071 0
    endloop
  endfacet
  facet normal -0.555622 -0.831435 0
    outer loop
      vertex 4.61731 -19.9239 0
      vertex 4.61731 -19.9239 120
      vertex 4.29289 -19.7071 120
    endloop
  endfacet
  facet normal -0.195046 -0.980794 0
    outer loop
      vertex 4.99998 -20 0
      vertex 4.61731 -19.9239 120
      vertex 4.61731 -19.9239 0
    endloop
  endfacet
  facet normal -0.195046 -0.980794 0
    outer loop
      vertex 4.99998 -20 0
      vertex 4.99998 -20 120
      vertex 4.61731 -19.9239 120
    endloop
  endfacet
  facet normal 0 -1 0
    outer loop
      vertex 19 -20 0
      vertex 4.99998 -20 120
      vertex 4.99998 -20 0
    endloop
  endfacet
  facet normal 0 -1 0
    outer loop
      vertex 19 -20 0
      vertex 19 -20 120
      vertex 4.99998 -20 120
    endloop
  endfacet
  facet normal 0.195032 -0.980797 0
    outer loop
      vertex 19.3827 -19.9239 0
      vertex 19 -20 120
      vertex 19 -20 0
    endloop
  endfacet
  facet normal 0.195032 -0.980797 0
    outer loop
      vertex 19.3827 -19.9239 0
      vertex 19.3827 -19.9239 120
      vertex 19 -20 120
    endloop
  endfacet
  facet normal 0.555646 -0.831419 0
    outer loop
      vertex 19.7071 -19.7071 0
      vertex 19.3827 -19.9239 120
      vertex 19.3827 -19.9239 0
    endloop
  endfacet
  facet normal 0.555646 -0.831419 0
    outer loop
      vertex 19.7071 -19.7071 0
      vertex 19.7071 -19.7071 120
      vertex 19.3827 -19.9239 120
    endloop
  endfacet
  facet normal 0.831419 -0.555646 0
    outer loop
      vertex 19.9239 -19.3827 0
      vertex 19.7071 -19.7071 120
      vertex 19.7071 -19.7071 0
    endloop
  endfacet
  facet normal 0.831419 -0.555646 0
    outer loop
      vertex 19.9239 -19.3827 0
      vertex 19.9239 -19.3827 120
      vertex 19.7071 -19.7071 120
    endloop
  endfacet
  facet normal 0.980797 -0.195032 0
    outer loop
      vertex 20 -19 0
      vertex 19.9239 -19.3827 120
      vertex 19.9239 -19.3827 0
    endloop
  endfacet
  facet normal 0.980797 -0.195032 0
    outer loop
      vertex 20 -19 0
      vertex 20 -19 120
      vertex 19.9239 -19.3827 120
    endloop
  endfacet
  facet normal 1 0 0
    outer loop
      vertex 20 -5 0
      vertex 20 -19 120
      vertex 20 -19 0
    endloop
  endfacet
  facet normal 1 0 -0
    outer loop
      vertex 20 -5 0
      vertex 20 -5 120
      vertex 20 -19 120
    endloop
  endfacet
  facet normal 0.980795 0.195042 0
    outer loop
      vertex 19.9239 -4.61732 0
      vertex 20 -5 120
      vertex 20 -5 0
    endloop
  endfacet
  facet normal 0.980795 0.195042 -0
    outer loop
      vertex 19.9239 -4.61732 0
      vertex 19.9239 -4.61732 120
      vertex 20 -5 120
    endloop
  endfacet
  facet normal 0.831427 0.555634 0
    outer loop
      vertex 19.7071 -4.29291 0
      vertex 19.9239 -4.61732 120
      vertex 19.9239 -4.61732 0
    endloop
  endfacet
  facet normal 0.831427 0.555634 -0
    outer loop
      vertex 19.7071 -4.29291 0
      vertex 19.7071 -4.29291 120
      vertex 19.9239 -4.61732 120
    endloop
  endfacet
  facet normal 0.555611 0.831443 0
    outer loop
      vertex 19.3827 -4.07613 0
      vertex 19.7071 -4.29291 120
      vertex 19.7071 -4.29291 0
    endloop
  endfacet
  facet normal 0.555611 0.831443 -0
    outer loop
      vertex 19.3827 -4.07613 0
      vertex 19.3827 -4.07613 120
      vertex 19.7071 -4.29291 120
    endloop
  endfacet
  facet normal 0.195106 0.980782 0
    outer loop
      vertex 19 -4 0
      vertex 19.3827 -4.07613 120
      vertex 19.3827 -4.07613 0
    endloop
  endfacet
  facet normal 0.195106 0.980782 -0
    outer loop
      vertex 19 -4 0
      vertex 19 -4 120
      vertex 19.3827 -4.07613 120
    endloop
  endfacet
  facet normal 0 1 0
    outer loop
      vertex 15.25 -4 0
      vertex 19 -4 120
      vertex 19 -4 0
    endloop
  endfacet
  facet normal 0 1 0
    outer loop
      vertex 15.25 -4 0
      vertex 15.25 -4 120
      vertex 19 -4 120
    endloop
  endfacet
  facet normal -1 0 0
    outer loop
      vertex 15.25 -7.75 0
      vertex 15.25 -4 120
      vertex 15.25 -4 0
    endloop
  endfacet
  facet normal -1 0 0
    outer loop
      vertex 15.25 -7.75 0
      vertex 15.25 -7.75 120
      vertex 15.25 -4 120
    endloop
  endfacet
  facet normal -0.707107 0.707107 0
    outer loop
      vertex 14 -9 0
      vertex 15.25 -7.75 120
      vertex 15.25 -7.75 0
    endloop
  endfacet
  facet normal -0.707107 0.707107 0
    outer loop
      vertex 14 -9 0
      vertex 14 -9 120
      vertex 15.25 -7.75 120
    endloop
  endfacet
  facet normal 0.707107 0.707107 0
    outer loop
      vertex 8 -3 0
      vertex 14 -9 120
      vertex 14 -9 0
    endloop
  endfacet
  facet normal 0.707107 0.707107 -0
    outer loop
      vertex 8 -3 0
      vertex 8 -3 120
      vertex 14 -9 120
    endloop
  endfacet
  facet normal 1 0 0
    outer loop
      vertex 8 -1 0
      vertex 8 -3 120
      vertex 8 -3 0
    endloop
  endfacet
  facet normal 1 0 -0
    outer loop
      vertex 8 -1 0
      vertex 8 -1 120
      vertex 8 -3 120
    endloop
  endfacet
  facet normal 0.707107 0.707107 0
    outer loop
      vertex 7 0 0
      vertex 8 -1 120
      vertex 8 -1 0
    endloop
  endfacet
  facet normal 0.707107 0.707107 -0
    outer loop
      vertex 7 0 0
      vertex 7 0 120
      vertex 8 -1 120
    endloop
  endfacet
  facet normal 0.707107 -0.707107 0
    outer loop
      vertex 8 1 0
      vertex 7 0 120
      vertex 7 0 0
    endloop
  endfacet
  facet normal 0.707107 -0.707107 0
    outer loop
      vertex 8 1 0
      vertex 8 1 120
      vertex 7 0 120
    endloop
  endfacet
  facet normal 1 0 0
    outer loop
      vertex 8 3 0
      vertex 8 1 120
      vertex 8 1 0
    endloop
  endfacet
  facet normal 1 0 -0
    outer loop
      vertex 8 3 0
      vertex 8 3 120
      vertex 8 1 120
    endloop
  endfacet
  facet normal 0.707107 -0.707107 0
    outer loop
      vertex 14 9 0
      vertex 8 3 120
      vertex 8 3 0
    endloop
  endfacet
  facet normal 0.707107 -0.707107 0
    outer loop
      vertex 14 9 0
      vertex 14 9 120
      vertex 8 3 120
    endloop
  endfacet
  facet normal -0.707107 -0.707107 0
    outer loop
      vertex 15.25 7.75 0
      vertex 14 9 120
      vertex 14 9 0
    endloop
  endfacet
  facet normal -0.707107 -0.707107 0
    outer loop
      vertex 15.25 7.75 0
      vertex 15.25 7.75 120
      vertex 14 9 120
    endloop
  endfacet
  facet normal -1 0 0
    outer loop
      vertex 15.25 4 0
      vertex 15.25 7.75 120
      vertex 15.25 7.75 0
    endloop
  endfacet
  facet normal -1 0 0
    outer loop
      vertex 15.25 4 0
      vertex 15.25 4 120
      vertex 15.25 7.75 120
    endloop
  endfacet
  facet normal 0 -1 0
    outer loop
      vertex 19 4 0
      vertex 15.25 4 120
      vertex 15.25 4 0
    endloop
  endfacet
  facet normal 0 -1 0
    outer loop
      vertex 19 4 0
      vertex 19 4 120
      vertex 15.25 4 120
    endloop
  endfacet
  facet normal 0.195106 -0.980782 0
    outer loop
      vertex 19.3827 4.07613 0
      vertex 19 4 120
      vertex 19 4 0
    endloop
  endfacet
  facet normal 0.195106 -0.980782 0
    outer loop
      vertex 19.3827 4.07613 0
      vertex 19.3827 4.07613 120
      vertex 19 4 120
    endloop
  endfacet
  facet normal 0.555611 -0.831443 0
    outer loop
      vertex 19.7071 4.29291 0
      vertex 19.3827 4.07613 120
      vertex 19.3827 4.07613 0
    endloop
  endfacet
  facet normal 0.555611 -0.831443 0
    outer loop
      vertex 19.7071 4.29291 0
      vertex 19.7071 4.29291 120
      vertex 19.3827 4.07613 120
    endloop
  endfacet
  facet normal 0.831427 -0.555634 0
    outer loop
      vertex 19.9239 4.61732 0
      vertex 19.7071 4.29291 120
      vertex 19.7071 4.29291 0
    endloop
  endfacet
  facet normal 0.831427 -0.555634 0
    outer loop
      vertex 19.9239 4.61732 0
      vertex 19.9239 4.61732 120
      vertex 19.7071 4.29291 120
    endloop
  endfacet
  facet normal 0.980795 -0.195042 0
    outer loop
      vertex 20 5 0
      vertex 19.9239 4.61732 120
      vertex 19.9239 4.61732 0
    endloop
  endfacet
  facet normal 0.980795 -0.195042 0
    outer loop
      vertex 20 5 0
      vertex 20 5 120
      vertex 19.9239 4.61732 120
    endloop
  endfacet
  facet normal 1 0 0
    outer loop
      vertex 20 19 0
      vertex 20 5 120
      vertex 20 5 0
    endloop
  endfacet
  facet normal 1 0 -0
    outer loop
      vertex 20 19 0
      vertex 20 19 120
      vertex 20 5 120
    endloop
  endfacet
  facet normal 0.980797 0.195032 0
    outer loop
      vertex 19.9239 19.3827 0
      vertex 20 19 120
      vertex 20 19 0
    endloop
  endfacet
  facet normal 0.980797 0.195032 -0
    outer loop
      vertex 19.9239 19.3827 0
      vertex 19.9239 19.3827 120
      vertex 20 19 120
    endloop
  endfacet
  facet normal 0.831419 0.555646 0
    outer loop
      vertex 19.7071 19.7071 0
      vertex 19.9239 19.3827 120
      vertex 19.9239 19.3827 0
    endloop
  endfacet
  facet normal 0.831419 0.555646 -0
    outer loop
      vertex 19.7071 19.7071 0
      vertex 19.7071 19.7071 120
      vertex 19.9239 19.3827 120
    endloop
  endfacet
  facet normal 0.555646 0.831419 0
    outer loop
      vertex 19.3827 19.9239 0
      vertex 19.7071 19.7071 120
      vertex 19.7071 19.7071 0
    endloop
  endfacet
  facet normal 0.555646 0.831419 -0
    outer loop
      vertex 19.3827 19.9239 0
      vertex 19.3827 19.9239 120
      vertex 19.7071 19.7071 120
    endloop
  endfacet
  facet normal 0.195032 0.980797 0
    outer loop
      vertex 19 20 0
      vertex 19.3827 19.9239 120
      vertex 19.3827 19.9239 0
    endloop
  endfacet
  facet normal 0.195032 0.980797 -0
    outer loop
      vertex 19 20 0
      vertex 19 20 120
      vertex 19.3827 19.9239 120
    endloop
  endfacet
  facet normal 0 1 0
    outer loop
      vertex 5 20 0
      vertex 19 20 120
      vertex 19 20 0
    endloop
  endfacet
  facet normal 0 1 0
    outer loop
      vertex 5 20 0
      vertex 5 20 120
      vertex 19 20 120
    endloop
  endfacet
  facet normal -0.195042 0.980795 0
    outer loop
      vertex 4.61732 19.9239 0
      vertex 5 20 120
      vertex 5 20 0
    endloop
  endfacet
  facet normal -0.195042 0.980795 0
    outer loop
      vertex 4.61732 19.9239 0
      vertex 4.61732 19.9239 120
      vertex 5 20 120
    endloop
  endfacet
  facet normal -0.555634 0.831427 0
    outer loop
      vertex 4.29291 19.7071 0
      vertex 4.61732 19.9239 120
      vertex 4.61732 19.9239 0
    endloop
  endfacet
  facet normal -0.555634 0.831427 0
    outer loop
      vertex 4.29291 19.7071 0
      vertex 4.29291 19.7071 120
      vertex 4.61732 19.9239 120
    endloop
  endfacet
  facet normal -0.831443 0.555611 0
    outer loop
      vertex 4.07613 19.3827 0
      vertex 4.29291 19.7071 120
      vertex 4.29291 19.7071 0
    endloop
  endfacet
  facet normal -0.831443 0.555611 0
    outer loop
      vertex 4.07613 19.3827 0
      vertex 4.07613 19.3827 120
      vertex 4.29291 19.7071 120
    endloop
  endfacet
  facet normal -0.980782 0.195106 0
    outer loop
      vertex 4 19 0
      vertex 4.07613 19.3827 120
      vertex 4.07613 19.3827 0
    endloop
  endfacet
  facet normal -0.980782 0.195106 0
    outer loop
      vertex 4 19 0
      vertex 4 19 120
      vertex 4.07613 19.3827 120
    endloop
  endfacet
  facet normal -1 0 0
    outer loop
      vertex 4 15.25 0
      vertex 4 19 120
      vertex 4 19 0
    endloop
  endfacet
  facet normal -1 0 0
    outer loop
      vertex 4 15.25 0
      vertex 4 15.25 120
      vertex 4 19 120
    endloop
  endfacet
  facet normal 0 -1 0
    outer loop
      vertex 7.75 15.25 0
      vertex 4 15.25 120
      vertex 4 15.25 0
    endloop
  endfacet
  facet normal 0 -1 0
    outer loop
      vertex 7.75 15.25 0
      vertex 7.75 15.25 120
      vertex 4 15.25 120
    endloop
  endfacet
  facet normal -0.707107 -0.707107 0
    outer loop
      vertex 9 14 0
      vertex 7.75 15.25 120
      vertex 7.75 15.25 0
    endloop
  endfacet
  facet normal -0.707107 -0.707107 0
    outer loop
      vertex 9 14 0
      vertex 9 14 120
      vertex 7.75 15.25 120
    endloop
  endfacet
  facet normal -0.707107 0.707107 0
    outer loop
      vertex 3 8 0
      vertex 9 14 120
      vertex 9 14 0
    endloop
  endfacet
  facet normal -0.707107 0.707107 0
    outer loop
      vertex 3 8 0
      vertex 3 8 120
      vertex 9 14 120
    endloop
  endfacet
  facet normal 0 1 0
    outer loop
      vertex 1 8 0
      vertex 3 8 120
      vertex 3 8 0
    endloop
  endfacet
  facet normal 0 1 0
    outer loop
      vertex 1 8 0
      vertex 1 8 120
      vertex 3 8 120
    endloop
  endfacet
  facet normal -0.707107 0.707107 0
    outer loop
      vertex 0 7 0
      vertex 1 8 120
      vertex 1 8 0
    endloop
  endfacet
  facet normal -0.707107 0.707107 0
    outer loop
      vertex 0 7 0
      vertex 0 7 120
      vertex 1 8 120
    endloop
  endfacet
  facet normal 0.707112 0.707101 0
    outer loop
      vertex -0.999985 8 0
      vertex 0 7 120
      vertex 0 7 0
    endloop
  endfacet
  facet normal 0.707112 0.707101 -0
    outer loop
      vertex -0.999985 8 0
      vertex -0.999985 8 120
      vertex 0 7 120
    endloop
  endfacet
  facet normal 0 1 0
    outer loop
      vertex -2.99998 8 0
      vertex -0.999985 8 120
      vertex -0.999985 8 0
    endloop
  endfacet
  facet normal 0 1 0
    outer loop
      vertex -2.99998 8 0
      vertex -2.99998 8 120
      vertex -0.999985 8 120
    endloop
  endfacet
  facet normal 0.707106 0.707108 0
    outer loop
      vertex -9 14 0
      vertex -2.99998 8 120
      vertex -2.99998 8 0
    endloop
  endfacet
  facet normal 0.707106 0.707108 -0
    outer loop
      vertex -9 14 0
      vertex -9 14 120
      vertex -2.99998 8 120
    endloop
  endfacet
  facet normal 0.707101 -0.707112 0
    outer loop
      vertex -7.74998 15.25 0
      vertex -9 14 120
      vertex -9 14 0
    endloop
  endfacet
  facet normal 0.707101 -0.707112 0
    outer loop
      vertex -7.74998 15.25 0
      vertex -7.74998 15.25 120
      vertex -9 14 120
    endloop
  endfacet
  facet normal 0 -1 0
    outer loop
      vertex -3.99998 15.25 0
      vertex -7.74998 15.25 120
      vertex -7.74998 15.25 0
    endloop
  endfacet
  facet normal 0 -1 0
    outer loop
      vertex -3.99998 15.25 0
      vertex -3.99998 15.25 120
      vertex -7.74998 15.25 120
    endloop
  endfacet
  facet normal 1 0 0
    outer loop
      vertex -3.99998 19 0
      vertex -3.99998 15.25 120
      vertex -3.99998 15.25 0
    endloop
  endfacet
  facet normal 1 0 -0
    outer loop
      vertex -3.99998 19 0
      vertex -3.99998 19 120
      vertex -3.99998 15.25 120
    endloop
  endfacet
  facet normal 0.980782 0.195106 0
    outer loop
      vertex -4.07611 19.3827 0
      vertex -3.99998 19 120
      vertex -3.99998 19 0
    endloop
  endfacet
  facet normal 0.980782 0.195106 -0
    outer loop
      vertex -4.07611 19.3827 0
      vertex -4.07611 19.3827 120
      vertex -3.99998 19 120
    endloop
  endfacet
  facet normal 0.831443 0.555611 0
    outer loop
      vertex -4.29289 19.7071 0
      vertex -4.07611 19.3827 120
      vertex -4.07611 19.3827 0
    endloop
  endfacet
  facet normal 0.831443 0.555611 -0
    outer loop
      vertex -4.29289 19.7071 0
      vertex -4.29289 19.7071 120
      vertex -4.07611 19.3827 120
    endloop
  endfacet
  facet normal 0.555622 0.831435 0
    outer loop
      vertex -4.61731 19.9239 0
      vertex -4.29289 19.7071 120
      vertex -4.29289 19.7071 0
    endloop
  endfacet
  facet normal 0.555622 0.831435 -0
    outer loop
      vertex -4.61731 19.9239 0
      vertex -4.61731 19.9239 120
      vertex -4.29289 19.7071 120
    endloop
  endfacet
  facet normal 0.195046 0.980794 0
    outer loop
      vertex -4.99998 20 0
      vertex -4.61731 19.9239 120
      vertex -4.61731 19.9239 0
    endloop
  endfacet
  facet normal 0.195046 0.980794 -0
    outer loop
      vertex -4.99998 20 0
      vertex -4.99998 20 120
      vertex -4.61731 19.9239 120
    endloop
  endfacet
  facet normal 0 1 0
    outer loop
      vertex -19 20 0
      vertex -4.99998 20 120
      vertex -4.99998 20 0
    endloop
  endfacet
  facet normal 0 1 0
    outer loop
      vertex -19 20 0
      vertex -19 20 120
      vertex -4.99998 20 120
    endloop
  endfacet
  facet normal -0.195032 0.980797 0
    outer loop
      vertex -19.3827 19.9239 0
      vertex -19 20 120
      vertex -19 20 0
    endloop
  endfacet
  facet normal -0.195032 0.980797 0
    outer loop
      vertex -19.3827 19.9239 0
      vertex -19.3827 19.9239 120
      vertex -19 20 120
    endloop
  endfacet
  facet normal -0.555646 0.831419 0
    outer loop
      vertex -19.7071 19.7071 0
      vertex -19.3827 19.9239 120
      vertex -19.3827 19.9239 0
    endloop
  endfacet
  facet normal -0.555646 0.831419 0
    outer loop
      vertex -19.7071 19.7071 0
      vertex -19.7071 19.7071 120
      vertex -19.3827 19.9239 120
    endloop
  endfacet
  facet normal -0.831419 0.555646 0
    outer loop
      vertex -19.9239 19.3827 0
      vertex -19.7071 19.7071 120
      vertex -19.7071 19.7071 0
    endloop
  endfacet
  facet normal -0.831419 0.555646 0
    outer loop
      vertex -19.9239 19.3827 0
      vertex -19.9239 19.3827 120
      vertex -19.7071 19.7071 120
    endloop
  endfacet
  facet normal -0.980797 0.195032 0
    outer loop
      vertex -20 19 0
      vertex -19.9239 19.3827 120
      vertex -19.9239 19.3827 0
    endloop
  endfacet
  facet normal -0.980797 0.195032 0
    outer loop
      vertex -20 19 0
      vertex -20 19 120
      vertex -19.9239 19.3827 120
    endloop
  endfacet
  facet normal -1 0 0
    outer loop
      vertex -20 5 0
      vertex -20 19 120
      vertex -20 19 0
    endloop
  endfacet
  facet normal -1 0 0
    outer loop
      vertex -20 5 0
      vertex -20 5 120
      vertex -20 19 120
    endloop
  endfacet
  facet normal -0.980795 -0.195042 0
    outer loop
      vertex -19.9239 4.61732 0
      vertex -20 5 120
      vertex -20 5 0
    endloop
  endfacet
  facet normal -0.980795 -0.195042 0
    outer loop
      vertex -19.9239 4.61732 0
      vertex -19.9239 4.61732 120
      vertex -20 5 120
    endloop
  endfacet
  facet normal -0.831427 -0.555634 0
    outer loop
      vertex -19.7071 4.29291 0
      vertex -19.9239 4.61732 120
      vertex -19.9239 4.61732 0
    endloop
  endfacet
  facet normal -0.831427 -0.555634 0
    outer loop
      vertex -19.7071 4.29291 0
      vertex -19.7071 4.29291 120
      vertex -19.9239 4.61732 120
    endloop
  endfacet
  facet normal -0.555611 -0.831443 0
    outer loop
      vertex -19.3827 4.07613 0
      vertex -19.7071 4.29291 120
      vertex -19.7071 4.29291 0
    endloop
  endfacet
  facet normal -0.555611 -0.831443 0
    outer loop
      vertex -19.3827 4.07613 0
      vertex -19.3827 4.07613 120
      vertex -19.7071 4.29291 120
    endloop
  endfacet
  facet normal -0.195106 -0.980782 0
    outer loop
      vertex -19 4 0
      vertex -19.3827 4.07613 120
      vertex -19.3827 4.07613 0
    endloop
  endfacet
  facet normal -0.195106 -0.980782 0
    outer loop
      vertex -19 4 0
      vertex -19 4 120
      vertex -19.3827 4.07613 120
    endloop
  endfacet
  facet normal 0 -1 0
    outer loop
      vertex -15.25 4 0
      vertex -19 4 120
      vertex -19 4 0
    endloop
  endfacet
  facet normal 0 -1 0
    outer loop
      vertex -15.25 4 0
      vertex -15.25 4 120
      vertex -19 4 120
    endloop
  endfacet
  facet normal 1 0 0
    outer loop
      vertex -15.25 7.75 0
      vertex -15.25 4 120
      vertex -15.25 4 0
    endloop
  endfacet
  facet normal 1 0 -0
    outer loop
      vertex -15.25 7.75 0
      vertex -15.25 7.75 120
      vertex -15.25 4 120
    endloop
  endfacet
  facet normal 0.707107 -0.707107 0
    outer loop
      vertex -14 9 0
      vertex -15.25 7.75 120
      vertex -15.25 7.75 0
    endloop
  endfacet
  facet normal 0.707107 -0.707107 0
    outer loop
      vertex -14 9 0
      vertex -14 9 120
      vertex -15.25 7.75 120
    endloop
  endfacet
  facet normal -0.707107 -0.707107 0
    outer loop
      vertex -8 3 0
      vertex -14 9 120
      vertex -14 9 0
    endloop
  endfacet
  facet normal -0.707107 -0.707107 0
    outer loop
      vertex -8 3 0
      vertex -8 3 120
      vertex -14 9 120
    endloop
  endfacet
  facet normal -1 0 0
    outer loop
      vertex -8 1 0
      vertex -8 3 120
      vertex -8 3 0
    endloop
  endfacet
  facet normal -1 0 0
    outer loop
      vertex -8 1 0
      vertex -8 1 120
      vertex -8 3 120
    endloop
  endfacet
  facet normal -0.707107 -0.707107 0
    outer loop
      vertex -7 0 0
      vertex -8 1 120
      vertex -8 1 0
    endloop
  endfacet
  facet normal -0.707107 -0.707107 0
    outer loop
      vertex -7 0 0
      vertex -7 0 120
      vertex -8 1 120
    endloop
  endfacet
  facet normal -0.707101 0.707112 0
    outer loop
      vertex -8 -0.999985 0
      vertex -7 0 120
      vertex -7 0 0
    endloop
  endfacet
  facet normal -0.707101 0.707112 0
    outer loop
      vertex -8 -0.999985 0
      vertex -8 -0.999985 120
      vertex -7 0 120
    endloop
  endfacet
  facet normal -1 0 0
    outer loop
      vertex -8 -2.99998 0
      vertex -8 -0.999985 120
      vertex -8 -0.999985 0
    endloop
  endfacet
  facet normal -1 0 0
    outer loop
      vertex -8 -2.99998 0
      vertex -8 -2.99998 120
      vertex -8 -0.999985 120
    endloop
  endfacet
  facet normal -0.707107 0.707107 0
    outer loop
      vertex -14 -8.99998 0
      vertex -8 -2.99998 120
      vertex -8 -2.99998 0
    endloop
  endfacet
  facet normal -0.707107 0.707107 0
    outer loop
      vertex -14 -8.99998 0
      vertex -14 -8.99998 120
      vertex -8 -2.99998 120
    endloop
  endfacet
  facet normal 0.707107 0.707107 0
    outer loop
      vertex -15.25 -7.74998 0
      vertex -14 -8.99998 120
      vertex -14 -8.99998 0
    endloop
  endfacet
  facet normal 0.707107 0.707107 -0
    outer loop
      vertex -15.25 -7.74998 0
      vertex -15.25 -7.74998 120
      vertex -14 -8.99998 120
    endloop
  endfacet
  facet normal 1 0 0
    outer loop
      vertex -15.25 -3.99998 0
      vertex -15.25 -7.74998 120
      vertex -15.25 -7.74998 0
    endloop
  endfacet
  facet normal 1 0 -0
    outer loop
      vertex -15.25 -3.99998 0
      vertex -15.25 -3.99998 120
      vertex -15.25 -7.74998 120
    endloop
  endfacet
  facet normal 0 1 0
    outer loop
      vertex -19 -3.99998 0
      vertex -15.25 -3.99998 120
      vertex -15.25 -3.99998 0
    endloop
  endfacet
  facet normal 0 1 0
    outer loop
      vertex -19 -3.99998 0
      vertex -19 -3.99998 120
      vertex -15.25 -3.99998 120
    endloop
  endfacet
  facet normal -0.195106 0.980782 0
    outer loop
      vertex -19.3827 -4.07611 0
      vertex -19 -3.99998 120
      vertex -19 -3.99998 0
    endloop
  endfacet
  facet normal -0.195106 0.980782 0
    outer loop
      vertex -19.3827 -4.07611 0
      vertex -19.3827 -4.07611 120
      vertex -19 -3.99998 120
    endloop
  endfacet
  facet normal -0.555611 0.831443 0
    outer loop
      vertex -19.7071 -4.29289 0
      vertex -19.3827 -4.07611 120
      vertex -19.3827 -4.07611 0
    endloop
  endfacet
  facet normal -0.555611 0.831443 0
    outer loop
      vertex -19.7071 -4.29289 0
      vertex -19.7071 -4.29289 120
      vertex -19.3827 -4.07611 120
    endloop
  endfacet
  facet normal -0.831435 0.555622 0
    outer loop
      vertex -19.9239 -4.61731 0
      vertex -19.7071 -4.29289 120
      vertex -19.7071 -4.29289 0
    endloop
  endfacet
  facet normal -0.831435 0.555622 0
    outer loop
      vertex -19.9239 -4.61731 0
      vertex -19.9239 -4.61731 120
      vertex -19.7071 -4.29289 120
    endloop
  endfacet
  facet normal -0.980794 0.195046 0
    outer loop
      vertex -20 -4.99998 0
      vertex -19.9239 -4.61731 120
      vertex -19.9239 -4.61731 0
    endloop
  endfacet
  facet normal -0.980794 0.195046 0
    outer loop
      vertex -20 -4.99998 0
      vertex -20 -4.99998 120
      vertex -19.9239 -4.61731 120
    endloop
  endfacet
  facet normal -1 0 0
    outer loop
      vertex -20 -19 0
      vertex -20 -4.99998 120
      vertex -20 -4.99998 0
    endloop
  endfacet
  facet normal -1 0 0
    outer loop
      vertex -20 -19 0
      vertex -20 -19 120
      vertex -20 -4.99998 120
    endloop
  endfacet
  facet normal -0.980797 -0.195032 0
    outer loop
      vertex -19.9239 -19.3827 0
      vertex -20 -19 120
      vertex -20 -19 0
    endloop
  endfacet
  facet normal -0.980797 -0.195032 0
    outer loop
      vertex -19.9239 -19.3827 0
      vertex -19.9239 -19.3827 120
      vertex -20 -19 120
    endloop
  endfacet
  facet normal -0.831419 -0.555646 0
    outer loop
      vertex -19.7071 -19.7071 0
      vertex -19.9239 -19.3827 120
      vertex -19.9239 -19.3827 0
    endloop
  endfacet
  facet normal -0.831419 -0.555646 0
    outer loop
      vertex -19.7071 -19.7071 0
      vertex -19.7071 -19.7071 120
      vertex -19.9239 -19.3827 120
    endloop
  endfacet
  facet normal -0.555646 -0.831419 0
    outer loop
      vertex -19.3827 -19.9239 0
      vertex -19.7071 -19.7071 120
      vertex -19.7071 -19.7071 0
    endloop
  endfacet
  facet normal -0.555646 -0.831419 0
    outer loop
      vertex -19.3827 -19.9239 0
      vertex -19.3827 -19.9239 120
      vertex -19.7071 -19.7071 120
    endloop
  endfacet
  facet normal -0.195032 -0.980797 0
    outer loop
      vertex -19 -20 0
      vertex -19.3827 -19.9239 120
      vertex -19.3827 -19.9239 0
    endloop
  endfacet
  facet normal -0.195032 -0.980797 0
    outer loop
      vertex -19 -20 0
      vertex -19 -20 120
      vertex -19.3827 -19.9239 120
    endloop
  endfacet
  facet normal 0 -1 0
    outer loop
      vertex -5 -20 0
      vertex -19 -20 120
      vertex -19 -20 0
    endloop
  endfacet
  facet normal 0 -1 0
    outer loop
      vertex -5 -20 0
      vertex -5 -20 120
      vertex -19 -20 120
    endloop
  endfacet
  facet normal 0.195042 -0.980795 0
    outer loop
      vertex -4.61732 -19.9239 0
      vertex -5 -20 120
      vertex -5 -20 0
    endloop
  endfacet
  facet normal 0.195042 -0.980795 0
    outer loop
      vertex -4.61732 -19.9239 0
      vertex -4.61732 -19.9239 120
      vertex -5 -20 120
    endloop
  endfacet
  facet normal 0.707107 0.707107 -0
    outer loop
      vertex -3.69551 -1.53073 0
      vertex -3.69551 -1.53073 120
      vertex -1.53073 -3.69551 0
    endloop
  endfacet
  facet normal 0.707107 0.707107 0
    outer loop
      vertex -1.53073 -3.69551 120
      vertex -1.53073 -3.69551 0
      vertex -3.69551 -1.53073 120
    endloop
  endfacet
  facet normal 1 0 -0
    outer loop
      vertex -3.69551 1.53073 0
      vertex -3.69551 1.53073 120
      vertex -3.69551 -1.53073 0
    endloop
  endfacet
  facet normal 1 -0 0
    outer loop
      vertex -3.69551 -1.53073 120
      vertex -3.69551 -1.53073 0
      vertex -3.69551 1.53073 120
    endloop
  endfacet
  facet normal 0.707107 -0.707107 0
    outer loop
      vertex -1.53073 3.69551 0
      vertex -1.53073 3.69551 120
      vertex -3.69551 1.53073 0
    endloop
  endfacet
  facet normal 0.707107 -0.707107 0
    outer loop
      vertex -3.69551 1.53073 120
      vertex -3.69551 1.53073 0
      vertex -1.53073 3.69551 120
    endloop
  endfacet
  facet normal 0 -1 0
    outer loop
      vertex 1.53073 3.69551 0
      vertex 1.53073 3.69551 120
      vertex -1.53073 3.69551 0
    endloop
  endfacet
  facet normal 0 -1 0
    outer loop
      vertex -1.53073 3.69551 120
      vertex -1.53073 3.69551 0
      vertex 1.53073 3.69551 120
    endloop
  endfacet
  facet normal -0.707107 -0.707107 0
    outer loop
      vertex 3.69551 1.53073 0
      vertex 3.69551 1.53073 120
      vertex 1.53073 3.69551 0
    endloop
  endfacet
  facet normal -0.707107 -0.707107 -0
    outer loop
      vertex 1.53073 3.69551 120
      vertex 1.53073 3.69551 0
      vertex 3.69551 1.53073 120
    endloop
  endfacet
  facet normal -1 0 0
    outer loop
      vertex 3.69551 -1.53073 0
      vertex 3.69551 -1.53073 120
      vertex 3.69551 1.53073 0
    endloop
  endfacet
  facet normal -1 -0 -0
    outer loop
      vertex 3.69551 1.53073 120
      vertex 3.69551 1.53073 0
      vertex 3.69551 -1.53073 120
    endloop
  endfacet
  facet normal -0.707107 0.707107 0
    outer loop
      vertex 1.53073 -3.69551 0
      vertex 1.53073 -3.69551 120
      vertex 3.69551 -1.53073 0
    endloop
  endfacet
  facet normal -0.707107 0.707107 0
    outer loop
      vertex 3.69551 -1.53073 120
      vertex 3.69551 -1.53073 0
      vertex 1.53073 -3.69551 120
    endloop
  endfacet
  facet normal 0 1 0
    outer loop
      vertex -1.53073 -3.69551 0
      vertex -1.53073 -3.69551 120
      vertex 1.53073 -3.69551 0
    endloop
  endfacet
  facet normal 0 1 0
    outer loop
      vertex 1.53073 -3.69551 120
      vertex 1.53073 -3.69551 0
      vertex -1.53073 -3.69551 120
    endloop
  endfacet
endsolid OpenSCAD_Model
